<?xml version="1.0" encoding="UTF-8" standalone="no"?>
<svg xmlns:dc="http://purl.org/dc/elements/1.1/" xmlns:cc="http://web.resource.org/cc/" xmlns:rdf="http://www.w3.org/1999/02/22-rdf-syntax-ns#" xmlns:svg="http://www.w3.org/2000/svg" xmlns="http://www.w3.org/2000/svg" xmlns:sodipodi="http://sodipodi.sourceforge.net/DTD/sodipodi-0.dtd" xmlns:inkscape="http://www.inkscape.org/namespaces/inkscape" width="694pt" height="874pt" viewBox="0 0 694 874" version="1.1" id="svg2" sodipodi:version="0.32" inkscape:version="0.45.1" sodipodi:docname="Sri_Lanka_provinces.svg" inkscape:output_extension="org.inkscape.output.svg.inkscape" sodipodi:docbase="C:\Documents and Settings\sdd">
  <metadata id="metadata65">
    <rdf:RDF>
      <cc:Work rdf:about="">
        <dc:format>image/svg+xml</dc:format>
        <dc:type rdf:resource="http://purl.org/dc/dcmitype/StillImage"/>
      </cc:Work>
    </rdf:RDF>
  </metadata>
  <defs id="defs63"/>
  <sodipodi:namedview inkscape:window-height="573" inkscape:window-width="744" inkscape:pageshadow="2" inkscape:pageopacity="0.0" guidetolerance="10.0" gridtolerance="10.0" objecttolerance="10.0" borderopacity="1.0" bordercolor="#666666" pagecolor="#ffffff" id="base" inkscape:zoom="0.69016018" inkscape:cx="573.37609" inkscape:cy="77.236961" inkscape:window-x="157" inkscape:window-y="37" inkscape:current-layer="svg2"/>
  <path fill="#ffffff" stroke="#ffffff" stroke-width="0.09375" d=" M 0.0 0.0 L 694.0 0.0 L 694.0 874.0 L 0.0 874.0 L 0.0 0.0 Z" id="path4"/>
  <path fill="#000000" stroke="#000000" stroke-width="0.09375" d=" M 213.6 14.7 C 219.3 13.4 225.0 12.7 230.7 11.9 C 239.0 30.1 252.8 45.2 267.2 58.8 C 281.3 70.2 295.0 82.3 310.8 91.2 C 323.1 98.6 332.0 110.0 342.3 119.7 C 360.1 137.1 368.5 161.0 378.8 183.1 C 382.8 192.0 374.6 200.8 377.6 209.8 C 381.2 208.3 384.4 206.1 388.0 204.8 C 395.7 208.3 402.1 214.1 407.1 220.9 C 419.5 237.5 434.5 252.3 444.2 270.7 C 446.5 277.6 449.1 284.7 449.7 291.9 C 449.7 295.1 446.0 295.5 443.8 296.5 C 442.7 293.8 441.6 291.2 440.4 288.5 C 433.8 292.7 426.6 296.8 422.6 303.9 C 432.6 308.4 443.1 311.8 454.0 313.4 C 455.5 310.3 456.7 307.0 458.3 304.0 C 460.4 301.7 463.4 300.3 465.9 298.4 C 471.4 304.4 475.2 311.6 476.5 319.6 C 479.8 336.1 484.0 352.5 485.8 369.2 C 482.0 371.8 479.0 375.8 480.3 380.8 C 483.0 390.5 489.9 398.2 497.6 404.5 C 510.0 413.9 515.1 429.3 522.7 442.3 C 528.1 455.7 543.6 460.6 550.6 472.9 C 548.1 476.0 543.9 478.3 544.1 482.9 C 546.0 491.3 555.7 493.5 559.2 500.9 C 565.4 509.6 556.8 520.1 560.5 529.4 C 561.7 533.3 566.2 534.3 569.5 535.6 C 570.3 532.8 571.0 530.0 571.8 527.2 C 574.1 529.4 576.0 532.0 577.0 535.0 C 579.8 542.9 583.0 550.7 584.2 559.0 C 587.2 575.5 585.3 592.4 586.7 609.0 C 587.0 619.7 589.4 630.6 586.1 641.0 C 581.1 659.8 577.6 679.2 570.0 697.1 C 565.8 705.1 564.2 714.1 560.0 722.0 C 555.6 730.4 551.0 738.8 545.7 746.7 C 539.5 755.9 529.6 761.4 521.0 768.0 C 503.6 780.6 487.1 794.4 469.0 806.0 C 461.0 811.2 451.6 813.6 442.7 816.6 C 431.4 820.2 420.5 824.8 409.1 828.0 C 399.4 830.1 389.4 831.3 380.3 835.4 C 373.5 838.4 366.2 839.7 359.3 842.4 C 352.1 845.0 347.2 850.9 340.9 854.8 C 332.5 860.9 322.4 863.3 313.0 867.1 C 309.3 868.3 305.6 870.2 301.6 869.5 C 277.1 864.6 252.8 858.7 229.2 850.7 C 224.6 848.9 219.9 847.1 215.9 844.1 C 203.9 831.6 193.7 817.2 186.8 801.3 C 183.4 789.0 179.9 776.7 175.5 764.6 C 171.4 753.3 171.9 740.8 167.5 729.6 C 162.3 715.7 156.5 702.1 150.5 688.6 C 145.1 676.6 142.7 663.4 141.8 650.3 C 141.3 645.6 143.6 641.6 144.8 637.3 C 148.4 618.5 140.6 600.0 140.2 581.3 C 141.2 561.9 135.9 543.1 134.0 524.0 C 133.0 514.8 131.4 505.6 131.4 496.3 C 132.8 479.1 127.3 462.4 124.5 445.6 C 122.6 432.7 114.9 421.5 113.5 408.6 C 111.9 396.4 111.6 384.2 111.1 372.0 C 111.2 364.3 117.3 358.9 123.0 354.7 C 120.7 370.7 116.7 386.7 118.5 403.1 C 119.1 406.7 118.0 411.9 121.7 414.3 C 126.8 417.4 137.3 419.3 139.5 411.8 C 137.8 406.3 135.5 401.0 136.0 395.0 C 136.1 378.8 134.5 362.3 138.3 346.4 C 141.8 329.4 144.4 312.3 148.2 295.4 C 152.4 292.8 158.0 291.0 159.9 285.9 C 165.8 273.0 166.6 258.0 163.8 244.1 C 161.2 231.9 160.1 219.5 159.0 207.1 C 167.4 202.3 176.1 197.7 183.6 191.6 C 187.4 188.6 188.8 183.7 190.5 179.4 C 194.9 166.9 200.9 154.8 202.5 141.6 C 204.6 134.5 199.6 128.5 198.6 121.8 C 197.2 115.7 197.3 109.5 197.0 103.4 C 205.0 100.7 212.5 96.4 219.4 91.6 C 213.2 77.5 196.8 74.0 186.5 63.9 C 196.4 62.1 205.1 67.7 214.0 71.0 C 222.4 73.9 229.8 78.9 237.5 83.3 C 251.7 86.1 266.4 84.0 280.6 86.6 C 290.1 89.4 297.8 97.4 308.4 96.1 C 299.7 90.1 290.4 84.8 281.0 80.0 C 274.7 76.2 267.1 78.3 260.2 77.5 C 249.5 75.1 242.2 66.2 233.0 61.0 C 226.8 57.4 220.5 53.0 213.2 52.5 C 215.6 57.2 219.2 61.3 220.9 66.4 C 211.7 67.2 203.0 62.9 195.0 59.0 C 185.5 54.3 175.9 49.8 167.1 43.9 C 160.7 40.4 160.0 31.9 160.2 25.5 C 164.7 20.8 169.4 14.9 176.4 14.4 C 183.6 14.0 191.0 15.0 197.9 17.2 C 201.5 18.2 203.1 21.9 205.9 23.9 C 212.6 26.8 220.3 27.3 226.9 30.2 C 238.6 44.2 250.5 60.0 268.3 66.4 C 268.4 65.7 268.4 64.4 268.4 63.8 C 270.1 65.2 271.7 66.7 273.3 68.1 C 252.5 65.3 239.4 47.1 226.8 32.2 C 220.7 29.0 213.6 28.1 207.1 25.5 C 204.0 24.4 201.9 21.6 199.1 19.9 C 192.9 16.2 185.3 15.2 178.2 15.2 C 171.0 16.2 166.0 22.1 160.5 26.3 C 161.8 32.9 162.8 41.0 169.9 44.1 C 185.4 53.1 201.2 62.5 219.0 65.8 C 216.7 60.9 213.9 56.2 212.2 51.1 C 227.1 52.6 238.4 63.7 250.3 71.6 C 260.8 79.0 275.1 74.3 285.9 81.1 C 294.5 85.9 303.9 89.9 310.9 97.0 C 305.9 96.3 300.4 97.7 295.7 95.3 C 289.0 92.2 282.7 87.3 274.9 87.2 C 260.1 84.9 243.8 88.7 230.3 80.7 C 217.6 73.2 203.8 67.2 189.3 64.4 C 199.9 73.5 216.4 77.8 220.8 92.6 C 213.4 97.2 205.8 101.6 197.7 104.6 C 198.4 114.2 199.5 123.8 202.8 132.9 C 205.7 146.4 199.4 159.3 194.8 171.7 C 192.3 177.6 190.8 184.0 187.3 189.5 C 180.0 198.0 169.5 202.7 160.0 208.2 C 160.9 217.4 161.5 226.7 163.3 235.8 C 164.6 243.2 166.5 250.5 166.8 258.0 C 166.7 268.9 164.4 279.7 160.0 289.6 C 169.2 291.6 178.0 295.1 186.7 298.6 C 190.3 289.9 188.5 279.8 193.4 271.6 C 204.3 268.3 215.9 268.2 227.1 266.1 C 226.4 276.1 234.1 283.9 241.0 290.0 C 246.7 293.9 253.5 288.9 256.3 283.8 C 260.2 275.9 264.9 268.2 271.4 262.2 C 277.9 261.5 283.4 265.6 289.6 266.5 C 303.0 259.8 311.8 246.8 317.5 233.3 C 320.0 228.5 321.9 222.7 327.0 220.1 C 334.7 215.6 342.9 212.2 351.3 209.5 C 358.8 207.0 367.5 208.5 374.4 204.3 C 379.1 197.3 379.9 187.6 376.0 180.0 C 366.8 160.1 358.8 138.8 343.1 122.9 C 331.9 111.8 322.0 98.8 307.9 91.2 C 295.5 84.0 284.6 74.5 273.3 65.6 C 260.3 55.8 249.5 43.3 239.7 30.3 C 235.6 24.9 232.7 18.8 229.6 12.9 C 222.1 14.2 213.6 14.4 208.0 20.3 C 214.8 23.4 222.8 23.9 229.3 27.8 C 242.1 40.1 255.5 51.7 268.4 63.8 C 260.0 59.6 254.2 51.9 247.1 45.9 C 239.5 39.7 232.1 33.0 225.8 25.5 C 218.9 26.4 212.5 24.2 206.6 20.9 C 208.6 18.6 210.3 15.4 213.6 14.7 Z" id="path6"/>
  <path fill="#ff9470" stroke="#ff9470" stroke-width="0.09375" d=" M 208.0 20.3 C 213.6 14.4 222.1 14.2 229.6 12.9 C 232.7 18.8 235.6 24.9 239.7 30.3 C 249.5 43.3 260.3 55.8 273.3 65.6 C 284.6 74.5 295.5 84.0 307.9 91.2 C 322.0 98.8 331.9 111.8 343.1 122.9 C 358.8 138.8 366.8 160.1 376.0 180.0 C 379.9 187.6 379.1 197.3 374.4 204.3 C 367.5 208.5 358.8 207.0 351.3 209.5 C 342.9 212.2 334.7 215.6 327.0 220.1 C 321.9 222.7 320.0 228.5 317.5 233.3 C 311.8 246.8 303.0 259.8 289.6 266.5 C 283.4 265.6 277.9 261.5 271.4 262.2 C 264.9 268.2 260.2 275.9 256.3 283.8 C 253.5 288.9 246.7 293.9 241.0 290.0 C 234.1 283.9 226.4 276.1 227.1 266.1 C 215.9 268.2 204.3 268.3 193.4 271.6 C 188.5 279.8 190.3 289.9 186.7 298.6 C 178.0 295.1 169.2 291.6 160.0 289.6 C 164.4 279.7 166.7 268.9 166.8 258.0 C 166.5 250.5 164.6 243.2 163.3 235.8 C 161.5 226.7 160.9 217.4 160.0 208.2 C 169.5 202.7 180.0 198.0 187.3 189.5 C 190.8 184.0 192.3 177.6 194.8 171.7 C 199.4 159.3 205.7 146.4 202.8 132.9 C 199.5 123.8 198.4 114.2 197.7 104.6 C 205.8 101.6 213.4 97.2 220.8 92.6 C 216.4 77.8 199.9 73.5 189.3 64.4 C 203.8 67.2 217.6 73.2 230.3 80.7 C 243.8 88.7 260.1 84.9 274.9 87.2 C 282.7 87.3 289.0 92.2 295.7 95.3 C 300.4 97.7 305.9 96.3 310.9 97.0 C 303.9 89.9 294.5 85.9 285.9 81.1 C 275.1 74.3 260.8 79.0 250.3 71.6 C 238.4 63.7 227.1 52.6 212.2 51.1 C 213.9 56.2 216.7 60.9 219.0 65.8 C 201.2 62.5 185.4 53.1 169.9 44.1 C 162.8 41.0 161.8 32.9 160.5 26.3 C 166.0 22.1 171.0 16.2 178.2 15.2 C 185.3 15.2 192.9 16.2 199.1 19.9 C 201.9 21.6 204.0 24.4 207.1 25.5 C 213.6 28.1 220.7 29.0 226.8 32.2 C 239.4 47.1 252.5 65.3 273.3 68.1 C 271.7 66.7 270.1 65.2 268.4 63.8 C 255.5 51.7 242.1 40.1 229.3 27.8 C 222.8 23.9 214.8 23.4 208.0 20.3 Z" id="path8"/>
  <path fill="#000000" stroke="#000000" stroke-width="0.09375" d=" M 146.3 26.7 C 149.2 26.8 152.1 26.9 155.1 27.0 C 153.8 32.2 154.6 38.7 149.6 41.9 C 150.0 42.0 150.9 42.0 151.4 42.1 C 148.6 41.9 145.9 41.6 143.2 41.3 C 144.9 44.5 147.0 47.8 150.8 48.7 C 150.2 50.5 149.5 52.2 148.9 54.0 C 156.6 57.6 165.3 56.6 173.4 58.6 C 168.1 55.3 161.7 52.8 159.3 46.4 C 158.8 48.0 158.3 49.7 157.8 51.3 C 155.9 48.3 154.1 45.2 152.3 42.1 L 151.8 41.2 C 153.5 42.7 155.2 44.3 156.8 46.0 C 158.8 45.8 160.9 45.6 163.0 45.6 C 162.9 47.6 162.6 49.7 163.3 51.7 C 167.9 54.7 173.3 56.5 178.9 55.7 C 178.9 59.4 177.4 62.6 174.3 64.6 C 170.5 61.7 166.7 58.7 162.3 56.7 C 159.7 55.2 157.9 58.5 156.0 59.8 C 149.2 55.5 144.6 48.8 142.3 41.2 C 146.2 41.3 145.7 38.5 145.7 36.3 C 145.6 33.1 145.7 29.9 146.3 26.7 Z" id="path10"/>
  <path fill="#ff9470" stroke="#ff9470" stroke-width="0.09375" d=" M 146.1 29.6 C 148.7 28.9 151.2 28.3 153.9 27.7 C 153.0 31.4 152.4 35.1 151.7 38.8 C 150.5 39.3 149.3 39.7 148.1 40.1 C 147.4 36.6 146.8 33.1 146.1 29.6 Z" id="path12"/>
  <path fill="#ff9470" stroke="#ff9470" stroke-width="0.09375" d=" M 143.2 41.3 C 145.9 41.6 148.6 41.9 151.4 42.1 L 152.3 42.1 C 154.1 45.2 155.9 48.3 157.8 51.3 C 158.3 49.7 158.8 48.0 159.3 46.4 C 161.7 52.8 168.1 55.3 173.4 58.6 C 165.3 56.6 156.6 57.6 148.9 54.0 C 149.5 52.2 150.2 50.5 150.8 48.7 C 147.0 47.8 144.9 44.5 143.2 41.3 Z" id="path14"/>
  <path fill="#000000" stroke="#000000" stroke-width="0.09375" d=" M 124.7 49.6 C 126.5 47.5 128.3 45.4 130.2 43.5 C 130.3 46.8 129.9 50.0 129.3 53.3 C 127.7 52.1 126.2 50.9 124.7 49.6 Z" id="path16"/>
  <path fill="#ff9470" stroke="#ff9470" stroke-width="0.09375" d=" M 128.1 47.3 C 129.8 47.2 129.7 50.0 128.1 49.9 C 126.4 50.0 126.5 47.2 128.1 47.3 Z" id="path18"/>
  <path fill="#ffffff" stroke="#ffffff" stroke-width="0.09375" d=" M 149.1 48.3 C 152.4 48.4 147.5 51.3 149.1 48.3 Z" id="path20"/>
  <path fill="#ff9470" stroke="#ff9470" stroke-width="0.09375" d=" M 172.0 62.7 C 173.7 60.3 175.5 58.0 177.4 55.7 C 178.3 60.3 175.1 61.7 172.0 62.7 Z" id="path22"/>
  <path fill="#000000" stroke="#000000" stroke-width="0.09375" d=" M 135.6 56.3 C 137.3 58.6 138.8 61.1 140.3 63.6 C 142.9 62.6 145.5 61.6 148.1 60.7 C 147.7 64.1 147.3 67.4 146.9 70.8 C 142.4 70.1 138.1 68.9 133.9 67.3 C 134.5 63.6 135.0 59.9 135.6 56.3 Z" id="path24"/>
  <path fill="#000000" stroke="#000000" stroke-width="0.09375" d=" M 125.2 61.2 C 126.0 59.7 127.2 58.4 128.2 57.1 C 128.6 60.3 128.3 63.6 127.8 66.8 C 126.8 65.0 125.6 63.2 125.2 61.2 Z" id="path26"/>
  <path fill="#ff9470" stroke="#ff9470" stroke-width="0.09375" d=" M 136.1 58.8 C 137.4 61.2 138.6 63.6 140.0 65.9 C 142.3 64.6 144.7 63.3 147.0 62.1 C 146.6 64.5 146.2 66.9 145.7 69.3 C 142.5 68.6 139.3 67.8 136.0 67.0 C 136.0 64.3 136.0 61.5 136.1 58.8 Z" id="path28"/>
  <path fill="#ff9470" stroke="#ff9470" stroke-width="0.09375" d=" M 127.1 60.1 C 128.4 60.8 128.4 61.5 127.1 62.1 C 125.8 61.5 125.8 60.8 127.1 60.1 Z" id="path30"/>
  <path fill="#000000" stroke="#000000" stroke-width="0.09375" d=" M 100.7 71.1 C 105.6 73.1 109.9 76.5 115.0 78.2 C 118.7 79.0 119.2 83.6 118.7 86.7 C 118.1 89.7 114.4 90.5 112.0 89.1 C 108.4 87.1 102.4 86.3 102.3 81.0 C 101.9 78.5 101.1 73.6 100.7 71.1 Z" id="path32"/>
  <path fill="#ff9470" stroke="#ff9470" stroke-width="0.09375" d=" M 101.9 72.3 C 104.8 74.2 107.3 76.5 109.6 78.9 C 112.1 79.6 116.8 78.4 117.2 81.9 C 118.3 84.6 116.7 87.0 115.5 89.3 C 111.7 87.4 107.8 85.5 104.0 83.7 C 103.3 79.9 102.5 76.1 101.9 72.3 Z" id="path34"/>
  <path fill="#000000" stroke="#000000" stroke-width="0.09375" d=" M 170.1 130.2 C 171.3 129.1 172.5 128.1 173.7 127.0 C 174.4 128.6 175.1 130.2 175.8 131.8 C 174.2 132.5 172.6 133.2 171.0 133.9 C 170.7 132.7 170.4 131.5 170.1 130.2 Z" id="path36"/>
  <path fill="#ff9470" stroke="#ff9470" stroke-width="0.09375" d=" M 172.2 130.2 C 176.2 129.2 171.2 134.2 172.2 130.2 Z" id="path38"/>
  <path fill="#000000" stroke="#000000" stroke-width="0.09375" d=" M 109.2 173.2 C 126.3 167.9 145.5 174.6 157.0 188.0 C 158.4 191.4 155.6 194.9 154.8 198.2 C 143.9 193.7 133.5 188.2 122.9 183.1 C 117.9 180.5 112.0 178.5 109.2 173.2 Z" id="path40"/>
  <path fill="#ff9470" stroke="#ff9470" stroke-width="0.09375" d=" M 116.6 172.5 C 131.4 170.8 145.6 178.0 155.8 188.3 C 155.9 191.1 154.9 193.8 154.2 196.4 C 139.9 190.2 125.7 183.3 112.0 175.7 C 111.7 173.2 114.9 173.0 116.6 172.5 Z" id="path42"/>
  <path fill="#808000" stroke="#808000" stroke-width="0.09375" d=" M 348.6 212.1 C 356.6 208.2 365.7 208.5 374.2 206.7 C 378.2 210.9 384.1 209.0 388.3 206.2 C 393.8 209.7 399.6 213.1 403.3 218.7 C 415.5 234.2 428.9 248.8 439.7 265.3 C 444.8 272.6 446.4 281.4 448.3 289.9 C 449.1 292.5 446.3 294.0 444.8 295.7 C 443.8 292.9 442.8 290.1 441.7 287.2 C 433.5 291.0 424.4 295.6 421.3 304.8 C 432.0 309.1 443.0 314.2 454.7 313.8 C 457.1 311.2 457.9 307.5 459.8 304.6 C 461.5 302.8 463.7 301.6 465.8 300.3 C 470.1 304.9 473.0 310.6 474.3 316.8 C 478.6 333.8 482.1 351.0 484.8 368.3 C 480.9 370.8 478.0 375.0 479.0 380.0 C 480.9 390.6 488.5 398.9 496.6 405.5 C 509.5 415.5 514.6 431.6 522.7 445.2 C 527.6 456.2 540.0 460.8 547.0 470.0 C 549.4 472.9 546.1 475.4 544.6 477.7 C 540.9 482.7 544.4 489.0 548.7 492.2 C 554.0 496.1 559.5 501.0 560.4 508.0 C 559.8 516.1 556.4 524.8 560.4 532.6 C 562.9 535.2 566.8 535.5 570.2 536.3 C 571.0 534.0 571.8 531.7 573.4 529.9 C 581.0 546.5 585.7 564.6 585.0 583.0 C 584.0 600.7 587.9 618.4 585.8 636.0 C 580.3 658.9 575.9 682.5 565.6 703.9 C 562.1 717.0 554.8 728.5 548.4 740.4 C 540.0 736.9 532.5 731.7 525.0 726.6 C 526.9 698.1 530.2 669.6 530.7 641.0 C 529.2 633.4 528.9 625.0 524.7 618.3 C 518.8 614.4 510.4 614.8 505.3 609.7 C 502.4 601.9 503.9 593.6 502.4 585.6 C 499.4 568.3 495.5 551.0 495.2 533.3 C 487.0 535.7 479.5 540.1 473.0 545.7 C 472.7 549.7 472.8 554.0 470.5 557.5 C 465.3 565.2 459.7 572.7 453.5 579.6 C 446.9 566.9 440.1 554.0 437.1 539.8 C 436.2 535.9 438.5 532.2 439.1 528.4 C 441.1 521.7 440.3 512.2 433.8 508.2 C 427.2 505.2 422.2 512.1 416.8 514.6 C 411.8 517.1 405.0 522.1 399.8 517.2 C 393.9 513.9 393.4 506.4 391.5 500.6 C 390.9 492.8 393.1 485.0 393.3 477.3 C 399.7 476.8 406.1 476.0 412.5 475.3 C 420.0 484.7 431.5 489.3 442.1 494.2 C 454.8 475.3 440.5 451.3 450.8 431.8 C 452.4 428.3 457.6 427.6 458.4 423.6 C 461.0 402.0 462.0 380.2 461.8 358.4 C 439.8 357.5 417.4 357.6 395.8 352.1 C 387.6 348.1 379.5 341.1 377.6 331.8 C 379.8 322.7 391.4 317.4 389.9 307.1 C 386.5 295.8 378.8 286.6 374.0 276.1 C 371.6 266.4 370.1 256.6 368.8 246.8 C 369.3 240.8 373.6 235.9 374.8 230.0 C 370.5 219.5 358.8 215.1 348.6 212.1 Z" id="path44"/>
  <path fill="#ffff90" stroke="#ffff90" stroke-width="0.09375" d=" M 328.0 221.0 C 333.5 218.1 339.0 214.8 345.2 213.4 C 356.8 213.6 367.4 220.6 373.9 230.0 C 371.6 235.5 368.0 240.8 367.5 246.9 C 368.3 254.9 369.9 262.8 371.4 270.7 C 373.6 285.5 387.8 295.8 388.8 310.9 C 386.3 318.7 377.7 323.7 376.3 331.9 C 378.1 340.9 385.3 348.4 393.2 352.6 C 415.2 358.3 438.2 358.3 460.7 359.3 C 461.3 377.5 459.8 395.7 458.8 413.9 C 458.3 417.4 458.6 421.4 456.6 424.6 C 453.6 427.6 448.9 429.3 448.2 434.2 C 443.5 448.3 447.3 463.4 446.8 477.9 C 446.0 483.0 443.8 487.7 441.8 492.5 C 431.5 487.9 420.5 483.3 413.5 474.2 C 400.5 476.0 387.3 475.5 374.2 475.5 C 368.0 478.2 363.0 483.6 355.9 483.9 C 352.6 483.5 346.0 482.8 342.6 482.5 C 341.4 473.3 342.8 464.1 346.7 455.7 C 350.7 446.3 354.6 436.9 358.0 427.2 C 352.4 422.4 347.1 417.1 340.9 413.1 C 337.5 413.1 334.8 415.4 332.0 416.9 C 324.9 421.0 318.8 426.4 313.8 432.8 C 308.9 437.8 305.4 444.5 298.9 447.7 C 295.5 449.6 292.0 451.3 288.3 452.2 C 285.3 453.2 281.8 451.1 281.2 448.0 C 278.2 431.9 272.5 415.2 260.7 403.3 C 239.3 386.0 214.5 373.4 190.0 361.0 C 185.7 358.0 180.8 360.1 176.7 362.1 C 172.8 351.4 168.7 340.6 167.2 329.3 C 173.1 322.8 182.1 318.0 184.5 308.8 C 186.1 301.4 190.4 294.7 190.6 286.9 C 190.8 281.8 192.2 277.0 193.8 272.2 C 204.7 270.6 215.5 269.1 226.3 267.0 C 224.5 277.0 233.0 283.7 238.8 290.2 C 245.2 295.5 253.8 291.0 257.7 285.0 C 260.6 276.6 266.1 269.3 272.4 263.2 C 278.9 261.5 283.2 269.3 289.3 268.3 C 303.1 261.4 313.0 248.4 318.4 234.2 C 320.9 229.5 322.9 223.6 328.0 221.0 Z" id="path46"/>
  <path fill="#70a0ff" stroke="#70a0ff" stroke-width="0.09375" d=" M 149.1 295.9 C 152.7 294.3 156.0 291.8 159.9 291.3 C 169.0 291.8 177.0 296.5 185.4 299.5 C 184.7 311.8 175.6 321.2 166.0 327.9 C 167.9 339.6 170.5 351.6 175.7 362.3 C 178.9 363.8 183.1 359.6 186.8 361.2 C 194.5 364.2 201.6 368.3 208.9 372.2 C 228.1 382.6 247.8 393.1 263.7 408.3 C 269.4 415.5 272.9 424.3 276.3 432.8 C 278.7 438.7 277.5 446.1 281.8 451.1 C 287.6 456.7 286.3 465.5 289.5 472.4 C 296.9 490.6 300.8 510.1 299.7 529.8 C 293.1 539.3 284.6 547.7 274.8 553.9 C 271.0 556.2 266.8 552.5 264.0 549.9 C 260.5 546.0 253.1 545.2 250.1 550.1 C 241.5 559.9 229.8 566.2 219.0 573.4 C 215.5 569.7 212.0 565.8 208.6 561.9 C 199.7 562.0 191.0 563.8 182.3 565.3 C 168.9 567.7 155.3 569.5 142.0 572.7 C 138.7 543.2 131.5 514.0 132.7 484.1 C 129.2 462.1 126.0 439.6 117.1 418.9 C 112.9 405.4 113.2 390.9 112.3 376.9 C 110.5 369.1 115.9 362.7 120.8 357.4 C 119.3 372.9 115.7 388.4 117.5 404.1 C 118.0 407.8 117.1 413.5 121.3 415.7 C 126.8 417.9 135.5 420.5 139.7 414.7 C 142.5 411.1 138.7 407.1 138.0 403.4 C 135.9 388.2 136.8 372.8 137.6 357.5 C 141.1 336.9 145.2 316.5 149.1 295.9 Z" id="path48"/>
  <path fill="#ffa0a0" stroke="#ffa0a0" stroke-width="0.09375" d=" M 322.0 426.0 C 327.3 421.0 333.8 417.6 340.0 413.8 C 345.1 418.4 351.3 422.0 355.5 427.4 C 355.8 431.3 353.8 434.9 352.5 438.4 C 346.5 452.7 338.8 467.4 341.6 483.4 C 346.3 484.2 351.2 484.7 356.0 485.0 C 361.3 484.8 365.6 481.6 369.9 478.9 C 376.4 474.2 384.9 476.7 392.2 477.1 C 392.4 491.6 387.1 505.5 388.1 520.0 C 388.2 535.0 390.3 549.9 391.4 564.9 C 390.6 575.8 387.8 586.5 386.6 597.5 C 384.8 611.2 382.5 625.6 374.1 637.0 C 369.9 639.4 364.6 639.3 360.3 641.4 C 356.8 645.5 352.5 649.7 351.6 655.3 C 352.0 659.4 355.0 662.8 355.5 666.9 C 355.2 671.4 353.7 675.7 352.9 680.1 C 334.3 691.3 311.1 688.3 291.1 682.9 C 289.0 682.3 287.2 680.8 286.3 678.9 C 281.7 671.5 277.8 663.8 273.9 656.0 C 269.3 647.7 270.0 637.0 274.9 628.9 C 280.6 618.6 284.1 606.2 294.2 599.1 C 292.3 581.8 280.8 567.8 269.1 555.7 C 272.1 555.6 275.2 555.6 277.7 553.7 C 286.1 547.6 293.8 540.4 300.0 532.1 C 302.8 512.0 298.4 491.6 291.0 472.9 C 288.5 467.0 287.9 460.6 286.9 454.3 C 294.4 451.2 302.9 448.8 307.9 441.9 C 312.6 436.6 316.8 430.9 322.0 426.0 Z" id="path50"/>
  <path fill="#00f0f0" stroke="#00f0f0" stroke-width="0.09375" d=" M 390.3 540.0 C 389.7 527.3 387.8 514.3 390.2 501.7 C 392.1 509.4 395.1 519.1 404.1 520.7 C 413.7 519.9 421.3 512.9 429.2 508.3 C 436.3 508.3 439.3 517.1 438.9 523.0 C 438.9 528.4 435.5 533.2 435.5 538.6 C 438.7 553.9 445.8 568.0 453.2 581.6 C 460.4 574.5 466.3 566.3 471.9 557.9 C 473.9 554.7 473.6 550.7 473.5 547.1 C 479.8 541.9 486.6 537.4 494.4 534.8 C 493.5 559.0 503.0 582.0 503.1 606.0 C 503.5 617.4 518.8 613.5 524.6 620.3 C 528.0 630.0 530.4 640.1 529.6 650.4 C 527.9 676.2 526.4 702.0 523.7 727.7 C 518.1 730.0 512.4 732.0 507.4 735.4 C 498.4 742.0 494.5 753.1 486.8 760.8 C 473.2 766.8 458.5 769.9 443.9 772.6 C 439.1 771.5 436.2 766.4 431.6 764.5 C 424.9 762.0 417.8 759.7 410.6 760.5 C 404.8 762.0 399.9 765.7 395.1 769.2 C 395.8 771.5 396.6 773.8 397.3 776.1 C 391.3 780.4 384.9 784.0 378.4 787.3 C 373.7 781.1 368.3 775.5 364.1 768.9 C 359.9 763.6 359.7 756.4 358.7 750.0 C 357.4 743.5 362.0 737.9 364.1 732.1 C 368.2 724.8 366.5 716.2 366.0 708.4 C 362.9 707.9 359.9 707.6 356.8 707.1 C 355.6 700.2 354.1 693.3 353.7 686.3 C 353.1 677.8 358.3 669.4 355.0 661.0 C 354.4 658.2 352.1 654.9 354.0 652.1 C 356.4 648.6 358.3 644.4 361.9 642.0 C 366.1 640.5 370.6 639.7 375.0 638.7 C 379.4 630.3 384.6 621.9 385.3 612.2 C 387.2 597.4 389.9 582.8 392.2 568.1 C 393.8 558.7 390.6 549.4 390.3 540.0 Z" id="path52"/>
  <path fill="#ff80c0" stroke="#ff80c0" stroke-width="0.09375" d=" M 253.7 547.7 C 256.3 548.3 259.9 547.8 262.1 549.8 C 275.1 563.8 289.4 578.6 293.1 598.1 C 285.5 603.4 281.9 612.0 277.9 619.9 C 274.1 627.9 268.7 635.7 269.9 645.0 C 269.2 650.1 271.9 654.6 273.9 659.1 C 277.5 666.1 280.9 673.2 285.0 680.0 C 287.6 684.4 293.3 684.6 297.6 685.6 C 315.5 689.3 335.2 691.1 351.9 682.3 C 352.7 690.9 354.1 699.5 355.9 707.9 C 358.9 708.4 361.9 708.8 364.9 709.3 C 365.1 714.2 366.0 719.0 365.7 723.9 C 364.0 730.9 359.6 736.8 357.8 743.7 C 357.2 753.7 358.2 764.9 365.1 772.8 C 369.8 779.7 375.9 785.4 381.2 791.8 C 383.8 794.7 383.7 798.8 382.5 802.3 C 363.5 796.6 343.5 792.9 326.1 782.8 C 318.9 779.2 317.4 770.4 311.6 765.4 C 303.9 764.2 296.3 767.1 289.4 770.0 C 281.3 770.5 273.5 766.9 266.1 763.8 C 260.6 761.9 257.5 757.0 254.6 752.4 C 245.4 736.8 235.4 721.6 225.7 706.3 C 219.9 695.8 214.7 684.3 215.2 672.0 C 215.0 648.2 209.2 624.8 208.2 600.9 C 206.2 590.8 213.9 582.8 219.4 575.4 C 230.6 566.0 245.4 560.3 253.7 547.7 Z" id="path54"/>
  <path d=" M 142.0 573.9 C 163.6 569.3 185.4 566.3 207.2 562.7 C 211.0 566.6 214.6 570.7 218.2 574.9 C 213.6 581.7 206.5 588.1 207.2 597.0 C 207.4 618.0 211.2 638.7 213.3 659.5 C 214.5 669.0 212.4 679.3 216.3 688.4 C 218.6 695.2 221.3 701.8 225.1 707.9 C 235.7 724.6 246.5 741.2 256.7 758.2 C 249.1 760.2 242.8 765.0 236.1 768.9 C 225.5 771.7 213.6 776.5 203.0 771.0 C 194.1 766.4 184.8 762.6 176.0 758.0 C 174.2 757.1 174.0 755.0 173.7 753.4 C 172.4 745.3 171.7 737.0 168.8 729.3 C 163.4 714.9 157.4 700.9 151.1 686.9 C 146.0 675.3 144.0 662.6 142.6 650.1 C 142.1 646.1 144.6 642.6 145.6 639.0 C 150.8 617.2 139.0 595.7 142.0 573.9 Z" id="path56" stroke-width="0.09375" stroke="#ffc000" fill="#ffc000"/>
  <path fill="#ff9470" stroke="#ff9470" stroke-width="0.09375" d=" M 293.2 696.8 C 294.6 696.3 295.1 698.7 293.8 699.2 C 292.4 699.6 291.9 697.2 293.2 696.8 Z" id="path58"/>
  <path fill="#b3ff40" stroke="#b3ff40" stroke-width="0.09375" d=" M 507.7 736.8 C 513.2 733.0 519.5 730.9 525.6 728.4 C 532.5 733.3 539.8 737.9 547.4 741.7 C 542.4 749.5 536.0 756.2 528.2 761.2 C 509.8 774.0 492.5 788.3 474.1 801.1 C 458.3 812.6 438.6 815.6 420.9 822.9 C 407.6 828.6 392.6 828.6 379.3 834.4 C 369.7 838.7 358.6 839.4 350.1 846.1 C 342.0 852.9 333.1 858.8 323.0 862.0 C 316.4 863.9 310.2 867.7 303.3 868.4 C 281.2 864.6 259.3 858.9 237.9 852.2 C 230.7 849.8 223.1 847.6 216.9 843.1 C 204.8 830.4 194.3 815.9 187.5 799.6 C 184.1 785.9 179.7 772.4 174.8 759.1 C 185.6 763.9 196.0 769.7 207.1 773.9 C 216.9 775.6 227.0 773.0 236.4 770.2 C 243.9 767.1 250.0 758.0 258.8 761.3 C 267.0 765.3 275.3 769.8 284.5 771.4 C 288.1 772.8 291.3 771.0 294.4 769.5 C 299.5 766.8 305.4 766.9 310.9 766.0 C 315.5 772.8 319.2 781.2 327.0 784.9 C 344.4 794.7 364.3 798.2 383.4 803.5 C 386.0 798.0 383.5 792.4 380.9 787.5 C 386.1 784.6 391.8 782.3 396.4 778.5 C 398.0 775.7 397.1 772.2 397.5 769.2 C 404.1 764.1 412.8 758.9 421.4 762.5 C 428.8 763.5 434.6 768.1 440.5 772.4 C 443.3 775.2 447.4 772.8 450.6 772.7 C 463.2 769.9 476.1 767.3 487.9 761.8 C 495.2 754.1 499.5 743.7 507.7 736.8 Z" id="path60"/>
  <svg:switch style="font-size:12px;font-style:normal;font-weight:normal;fill:#000000;fill-opacity:1;stroke:none;stroke-width:1px;stroke-linecap:butt;stroke-linejoin:miter;stroke-opacity:1;font-family:Bitstream Vera Sans"><svg:text xml:space="preserve" style="font-size:12px;font-style:normal;font-weight:normal;fill:#000000;fill-opacity:1;stroke:none;stroke-width:1px;stroke-linecap:butt;stroke-linejoin:miter;stroke-opacity:1;font-family:Bitstream Vera Sans" x="238.78514" y="824.15649" id="text2231-si" systemLanguage="si"><svg:tspan sodipodi:role="line" id="tspan2233-si" x="238.78514" y="824.15649" style="font-size:22px">දකුණ</svg:tspan></svg:text><svg:text xml:space="preserve" style="font-size:12px;font-style:normal;font-weight:normal;fill:#000000;fill-opacity:1;stroke:none;stroke-width:1px;stroke-linecap:butt;stroke-linejoin:miter;stroke-opacity:1;font-family:Lohit Bengali" x="238.78514" y="824.15649" id="text2231-bn" systemLanguage="bn"><svg:tspan sodipodi:role="line" id="tspan2233-bn" x="238.78514" y="824.15649" style="font-size:22px">দক্ষিণ</svg:tspan></svg:text><svg:text xml:space="preserve" style="font-size:12px;font-style:normal;font-weight:normal;fill:#000000;fill-opacity:1;stroke:none;stroke-width:1px;stroke-linecap:butt;stroke-linejoin:miter;stroke-opacity:1;font-family:Bitstream Vera Sans" x="238.78514" y="824.15649" id="text2231"><svg:tspan sodipodi:role="line" id="tspan2233" x="238.78514" y="824.15649" style="font-size:22px">Southern</svg:tspan></svg:text></svg:switch>
  <svg:switch style="font-size:12px;font-style:normal;font-weight:normal;fill:#000000;fill-opacity:1;stroke:none;stroke-width:1px;stroke-linecap:butt;stroke-linejoin:miter;stroke-opacity:1;font-family:Bitstream Vera Sans"><svg:text xml:space="preserve" style="font-size:12px;font-style:normal;font-weight:normal;fill:#000000;fill-opacity:1;stroke:none;stroke-width:1px;stroke-linecap:butt;stroke-linejoin:miter;stroke-opacity:1;font-family:Bitstream Vera Sans" x="219.07957" y="173.87268" id="text2235-si" systemLanguage="si"><svg:tspan sodipodi:role="line" id="tspan2237-si" x="219.07957" y="173.87268" style="font-size:24">උතුර</svg:tspan></svg:text><svg:text xml:space="preserve" style="font-size:12px;font-style:normal;font-weight:normal;fill:#000000;fill-opacity:1;stroke:none;stroke-width:1px;stroke-linecap:butt;stroke-linejoin:miter;stroke-opacity:1;font-family:Lohit Bengali" x="219.07957" y="173.87268" id="text2235-bn" systemLanguage="bn"><svg:tspan sodipodi:role="line" id="tspan2237-bn" x="219.07957" y="173.87268" style="font-size:24">উত্তর</svg:tspan></svg:text><svg:text xml:space="preserve" style="font-size:12px;font-style:normal;font-weight:normal;fill:#000000;fill-opacity:1;stroke:none;stroke-width:1px;stroke-linecap:butt;stroke-linejoin:miter;stroke-opacity:1;font-family:Bitstream Vera Sans" x="219.07957" y="173.87268" id="text2235"><svg:tspan sodipodi:role="line" id="tspan2237" x="219.07957" y="173.87268" style="font-size:24">Northern</svg:tspan></svg:text></svg:switch>
  <svg:switch style="font-size:12px;font-style:normal;font-weight:normal;fill:#000000;fill-opacity:1;stroke:none;stroke-width:1px;stroke-linecap:butt;stroke-linejoin:miter;stroke-opacity:1;font-family:Bitstream Vera Sans"><svg:text xml:space="preserve" style="font-size:12px;font-style:normal;font-weight:normal;fill:#000000;fill-opacity:1;stroke:none;stroke-width:1px;stroke-linecap:butt;stroke-linejoin:miter;stroke-opacity:1;font-family:Bitstream Vera Sans" x="202.49469" y="338.14618" id="text2239-si" systemLanguage="si"><svg:tspan sodipodi:role="line" id="tspan2241-si" x="202.49469" y="338.14618" style="font-size:24px">උතුරු මැද</svg:tspan></svg:text><svg:text xml:space="preserve" style="font-size:12px;font-style:normal;font-weight:normal;fill:#000000;fill-opacity:1;stroke:none;stroke-width:1px;stroke-linecap:butt;stroke-linejoin:miter;stroke-opacity:1;font-family:Lohit Bengali" x="202.49469" y="338.14618" id="text2239-bn" systemLanguage="bn"><svg:tspan sodipodi:role="line" id="tspan2241-bn" x="202.49469" y="338.14618" style="font-size:24px">উত্তর মধ্য</svg:tspan></svg:text><svg:text xml:space="preserve" style="font-size:12px;font-style:normal;font-weight:normal;fill:#000000;fill-opacity:1;stroke:none;stroke-width:1px;stroke-linecap:butt;stroke-linejoin:miter;stroke-opacity:1;font-family:Bitstream Vera Sans" x="202.49469" y="338.14618" id="text2239"><svg:tspan sodipodi:role="line" id="tspan2241" x="202.49469" y="338.14618" style="font-size:24px">North Central</svg:tspan></svg:text></svg:switch>
  <svg:switch style="font-size:12px;font-style:normal;font-weight:normal;text-align:center;text-anchor:middle;fill:#000000;fill-opacity:1;stroke:none;stroke-width:1px;stroke-linecap:butt;stroke-linejoin:miter;stroke-opacity:1;font-family:Bitstream Vera Sans"><svg:text xml:space="preserve" style="font-size:12px;font-style:normal;font-weight:normal;text-align:center;text-anchor:middle;fill:#000000;fill-opacity:1;stroke:none;stroke-width:1px;stroke-linecap:butt;stroke-linejoin:miter;stroke-opacity:1;font-family:Bitstream Vera Sans" x="209.74773" y="451.74301" id="text3218-si" systemLanguage="si"><svg:tspan sodipodi:role="line" id="tspan3220-si" x="209.74773" y="451.74301" style="font-size:24px;text-align:center;text-anchor:middle">වයඹ</svg:tspan><svg:tspan sodipodi:role="line" x="209.74773" y="481.74301" style="font-size:24px;text-align:center;text-anchor:middle" id="tspan3222-si"> </svg:tspan></svg:text><svg:text xml:space="preserve" style="font-size:12px;font-style:normal;font-weight:normal;text-align:center;text-anchor:middle;fill:#000000;fill-opacity:1;stroke:none;stroke-width:1px;stroke-linecap:butt;stroke-linejoin:miter;stroke-opacity:1;font-family:Lohit Bengali" x="209.74773" y="451.74301" id="text3218-bn" systemLanguage="bn"><svg:tspan sodipodi:role="line" id="tspan3220-bn" x="209.74773" y="451.74301" style="font-size:24px;text-align:center;text-anchor:middle">উত্তর</svg:tspan><svg:tspan sodipodi:role="line" x="209.74773" y="481.74301" style="font-size:24px;text-align:center;text-anchor:middle" id="tspan3222-bn">পশ্চিম</svg:tspan></svg:text><svg:text xml:space="preserve" style="font-size:12px;font-style:normal;font-weight:normal;text-align:center;text-anchor:middle;fill:#000000;fill-opacity:1;stroke:none;stroke-width:1px;stroke-linecap:butt;stroke-linejoin:miter;stroke-opacity:1;font-family:Bitstream Vera Sans" x="209.74773" y="451.74301" id="text3218"><svg:tspan sodipodi:role="line" id="tspan3220" x="209.74773" y="451.74301" style="font-size:24px;text-align:center;text-anchor:middle">North</svg:tspan><svg:tspan sodipodi:role="line" x="209.74773" y="481.74301" style="font-size:24px;text-align:center;text-anchor:middle" id="tspan3222">Western</svg:tspan></svg:text></svg:switch>
  <svg:switch style="font-size:12px;font-style:normal;font-weight:normal;fill:#000000;fill-opacity:1;stroke:none;stroke-width:1px;stroke-linecap:butt;stroke-linejoin:miter;stroke-opacity:1;font-family:Bitstream Vera Sans"><svg:text xml:space="preserve" style="font-size:12px;font-style:normal;font-weight:normal;fill:#000000;fill-opacity:1;stroke:none;stroke-width:1px;stroke-linecap:butt;stroke-linejoin:miter;stroke-opacity:1;font-family:Bitstream Vera Sans" x="286.10062" y="564.59424" id="text3232-si" systemLanguage="si"><svg:tspan sodipodi:role="line" id="tspan3234-si" x="286.10062" y="564.59424" style="font-size:22px">මධ්‍යම</svg:tspan></svg:text><svg:text xml:space="preserve" style="font-size:12px;font-style:normal;font-weight:normal;fill:#000000;fill-opacity:1;stroke:none;stroke-width:1px;stroke-linecap:butt;stroke-linejoin:miter;stroke-opacity:1;font-family:Lohit Bengali" x="286.10062" y="564.59424" id="text3232-bn" systemLanguage="bn"><svg:tspan sodipodi:role="line" id="tspan3234-bn" x="286.10062" y="564.59424" style="font-size:22px">মধ্য</svg:tspan></svg:text><svg:text xml:space="preserve" style="font-size:12px;font-style:normal;font-weight:normal;fill:#000000;fill-opacity:1;stroke:none;stroke-width:1px;stroke-linecap:butt;stroke-linejoin:miter;stroke-opacity:1;font-family:Bitstream Vera Sans" x="286.10062" y="564.59424" id="text3232"><svg:tspan sodipodi:role="line" id="tspan3234" x="286.10062" y="564.59424" style="font-size:22px">Central</svg:tspan></svg:text></svg:switch>
  <svg:switch style="font-size:12px;font-style:normal;font-weight:normal;fill:#ffffff;fill-opacity:1;stroke:none;stroke-width:1px;stroke-linecap:butt;stroke-linejoin:miter;stroke-opacity:1;font-family:Bitstream Vera Sans"><svg:text xml:space="preserve" style="font-size:12px;font-style:normal;font-weight:normal;fill:#ffffff;fill-opacity:1;stroke:none;stroke-width:1px;stroke-linecap:butt;stroke-linejoin:miter;stroke-opacity:1;font-family:Bitstream Vera Sans" x="449.54095" y="519.38733" id="text3236-si" systemLanguage="si"><svg:tspan sodipodi:role="line" id="tspan3238-si" x="449.54095" y="519.38733" style="font-size:22px;fill:#ffffff">නැගෙනහිර</svg:tspan></svg:text><svg:text xml:space="preserve" style="font-size:12px;font-style:normal;font-weight:normal;fill:#ffffff;fill-opacity:1;stroke:none;stroke-width:1px;stroke-linecap:butt;stroke-linejoin:miter;stroke-opacity:1;font-family:Lohit Bengali" x="449.54095" y="519.38733" id="text3236-bn" systemLanguage="bn"><svg:tspan sodipodi:role="line" id="tspan3238-bn" x="449.54095" y="519.38733" style="font-size:22px;fill:#ffffff">পূর্ব</svg:tspan></svg:text><svg:text xml:space="preserve" style="font-size:12px;font-style:normal;font-weight:normal;fill:#ffffff;fill-opacity:1;stroke:none;stroke-width:1px;stroke-linecap:butt;stroke-linejoin:miter;stroke-opacity:1;font-family:Bitstream Vera Sans" x="449.54095" y="519.38733" id="text3236"><svg:tspan sodipodi:role="line" id="tspan3238" x="449.54095" y="519.38733" style="font-size:22px;fill:#ffffff">Eastern</svg:tspan></svg:text></svg:switch>
  <svg:switch style="font-size:12px;font-style:normal;font-weight:normal;fill:#000000;fill-opacity:1;stroke:none;stroke-width:1px;stroke-linecap:butt;stroke-linejoin:miter;stroke-opacity:1;font-family:Bitstream Vera Sans"><svg:text xml:space="preserve" style="font-size:12px;font-style:normal;font-weight:normal;fill:#000000;fill-opacity:1;stroke:none;stroke-width:1px;stroke-linecap:butt;stroke-linejoin:miter;stroke-opacity:1;font-family:Bitstream Vera Sans" x="418.24387" y="682.82764" id="text2208-si" systemLanguage="si"><svg:tspan sodipodi:role="line" id="tspan2210-si" x="418.24387" y="682.82764" style="font-size:22px">ඌව</svg:tspan></svg:text><svg:text xml:space="preserve" style="font-size:12px;font-style:normal;font-weight:normal;fill:#000000;fill-opacity:1;stroke:none;stroke-width:1px;stroke-linecap:butt;stroke-linejoin:miter;stroke-opacity:1;font-family:Lohit Bengali" x="418.24387" y="682.82764" id="text2208-bn" systemLanguage="bn"><svg:tspan sodipodi:role="line" id="tspan2210-bn" x="418.24387" y="682.82764" style="font-size:22px">উভা</svg:tspan></svg:text><svg:text xml:space="preserve" style="font-size:12px;font-style:normal;font-weight:normal;fill:#000000;fill-opacity:1;stroke:none;stroke-width:1px;stroke-linecap:butt;stroke-linejoin:miter;stroke-opacity:1;font-family:Bitstream Vera Sans" x="418.24387" y="682.82764" id="text2208"><svg:tspan sodipodi:role="line" id="tspan2210" x="418.24387" y="682.82764" style="font-size:22px">Uva</svg:tspan></svg:text></svg:switch>
  <svg:switch style="font-size:12px;font-style:normal;font-weight:normal;fill:#000000;fill-opacity:1;stroke:none;stroke-width:1px;stroke-linecap:butt;stroke-linejoin:miter;stroke-opacity:1;font-family:Bitstream Vera Sans"><svg:text xml:space="preserve" style="font-size:12px;font-style:normal;font-weight:normal;fill:#000000;fill-opacity:1;stroke:none;stroke-width:1px;stroke-linecap:butt;stroke-linejoin:miter;stroke-opacity:1;font-family:Bitstream Vera Sans" x="144.89391" y="665.35278" id="text2212-si" systemLanguage="si"><svg:tspan sodipodi:role="line" id="tspan2214-si" x="144.89391" y="665.35278" style="font-size:16px">බස්නාහිර</svg:tspan></svg:text><svg:text xml:space="preserve" style="font-size:12px;font-style:normal;font-weight:normal;fill:#000000;fill-opacity:1;stroke:none;stroke-width:1px;stroke-linecap:butt;stroke-linejoin:miter;stroke-opacity:1;font-family:Lohit Bengali" x="144.89391" y="665.35278" id="text2212-bn" systemLanguage="bn"><svg:tspan sodipodi:role="line" id="tspan2214-bn" x="144.89391" y="665.35278" style="font-size:16px">পশ্চিম</svg:tspan></svg:text><svg:text xml:space="preserve" style="font-size:12px;font-style:normal;font-weight:normal;fill:#000000;fill-opacity:1;stroke:none;stroke-width:1px;stroke-linecap:butt;stroke-linejoin:miter;stroke-opacity:1;font-family:Bitstream Vera Sans" x="144.89391" y="665.35278" id="text2212"><svg:tspan sodipodi:role="line" id="tspan2214" x="144.89391" y="665.35278" style="font-size:16px">Western</svg:tspan></svg:text></svg:switch>
  <svg:switch style="font-size:12px;font-style:normal;font-weight:normal;fill:#000000;fill-opacity:1;stroke:none;stroke-width:1px;stroke-linecap:butt;stroke-linejoin:miter;stroke-opacity:1;font-family:Bitstream Vera Sans"><svg:text xml:space="preserve" style="font-size:12px;font-style:normal;font-weight:normal;fill:#000000;fill-opacity:1;stroke:none;stroke-width:1px;stroke-linecap:butt;stroke-linejoin:miter;stroke-opacity:1;font-family:Bitstream Vera Sans" x="237.0666" y="723.23334" id="text2216-si" systemLanguage="si"><svg:tspan sodipodi:role="line" id="tspan2218-si" x="237.0666" y="723.23334" style="font-size:16px">සබරගමුව</svg:tspan></svg:text><svg:text xml:space="preserve" style="font-size:12px;font-style:normal;font-weight:normal;fill:#000000;fill-opacity:1;stroke:none;stroke-width:1px;stroke-linecap:butt;stroke-linejoin:miter;stroke-opacity:1;font-family:Lohit Bengali" x="237.0666" y="723.23334" id="text2216-bn" systemLanguage="bn"><svg:tspan sodipodi:role="line" id="tspan2218-bn" x="237.0666" y="723.23334" style="font-size:16px">সাবরাগমুওয়া</svg:tspan></svg:text><svg:text xml:space="preserve" style="font-size:12px;font-style:normal;font-weight:normal;fill:#000000;fill-opacity:1;stroke:none;stroke-width:1px;stroke-linecap:butt;stroke-linejoin:miter;stroke-opacity:1;font-family:Bitstream Vera Sans" x="237.0666" y="723.23334" id="text2216"><svg:tspan sodipodi:role="line" id="tspan2218" x="237.0666" y="723.23334" style="font-size:16px">Sabaragamuwa</svg:tspan></svg:text></svg:switch>
</svg>
